<?xml version="1.0" encoding="utf-8"?>
<svg xmlns="http://www.w3.org/2000/svg"
	xmlns:xlink="http://www.w3.org/1999/xlink"
	width="33px" height="32px" viewBox="0 0 33 32">
<path fillRule="evenodd" d="M 16.5 32C 7.8 32 0.75 24.95 0.75 16.25 0.75 7.55 7.8 0.5 16.5 0.5 25.2 0.5 32.25 7.55 32.25 16.25 32.25 24.95 25.2 32 16.5 32ZM 16.5 2.96C 9.16 2.96 3.21 8.91 3.21 16.25 3.21 23.59 9.16 29.54 16.5 29.54 23.84 29.54 29.79 23.59 29.79 16.25 29.79 8.91 23.84 2.96 16.5 2.96ZM 22.8 12.81C 22.8 12.82 22.8 12.84 22.8 12.86 22.8 12.87 22.8 12.89 22.8 12.9 22.8 12.91 22.8 12.92 22.8 12.92 23.02 18.57 18.95 23.14 13.71 23.14 11.86 23.14 10.12 22.57 8.62 21.59 10.83 21.97 12.6 20.79 13.12 20.14 11.66 20.14 10.32 18.8 10.22 17.77 10.52 17.81 11.19 17.88 11.57 17.66 9.59 17.07 9.04 15.45 9.07 14.24 9.4 14.58 10.1 14.66 10.49 14.63 9.37 13.89 8.52 11.84 9.5 10.01 11.1 12.26 13.95 13.57 16.38 13.64 16.38 13.64 16.38 13.64 16.38 13.64 16.33 13.39 16.3 13.13 16.3 12.86 16.3 10.93 17.76 9.36 19.55 9.36 20.47 9.36 21.31 9.77 21.9 10.44 21.9 10.44 21.9 10.44 21.9 10.44 22.42 10.44 23.47 9.98 23.93 9.67 23.75 10.38 23.05 11.29 22.57 11.57 23.31 11.49 24.11 11.17 24.37 11.02 23.92 11.83 23.28 12.46 22.8 12.81Z" fill="rgb(177,177,177)"/></svg>