<?xml version="1.0" encoding="utf-8"?>
<svg xmlns="http://www.w3.org/2000/svg"
	xmlns:xlink="http://www.w3.org/1999/xlink"
	width="31px" height="31px" viewBox="0 0 31 31">
<path fillRule="evenodd" d="M 15.5 31C 6.94 31-0 24.06-0 15.5-0 6.94 6.94-0 15.5-0 24.06-0 31 6.94 31 15.5 31 24.06 24.06 31 15.5 31ZM 15.5 2.42C 8.28 2.42 2.42 8.28 2.42 15.5 2.42 22.72 8.28 28.58 15.5 28.58 22.72 28.58 28.58 22.72 28.58 15.5 28.58 8.28 22.72 2.42 15.5 2.42ZM 19.18 13.13C 19.18 13.13 18.76 15.86 18.76 15.86 18.76 15.86 16.48 15.86 16.48 15.86 16.48 19.34 16.48 23.25 16.48 23.25 16.48 23.25 13.8 23.25 13.8 23.25 13.8 23.25 13.8 19.38 13.8 15.86 13.8 15.86 11.82 15.86 11.82 15.86 11.82 15.86 11.82 13.13 11.82 13.13 11.82 13.13 13.8 13.13 13.8 13.13 13.8 13.13 13.8 11 13.8 11 13.8 9.73 14.42 7.75 17.14 7.75 17.14 7.75 19.14 7.76 19.14 7.76 19.14 7.76 19.14 10.42 19.14 10.42 19.14 10.42 17.69 10.42 17.4 10.42 17.11 10.42 16.48 10.56 16.48 11.16 16.48 11.16 16.48 13.13 16.48 13.13 16.48 13.13 19.18 13.13 19.18 13.13Z" fill="rgb(177,177,177)"/></svg>