<?xml version="1.0" encoding="utf-8"?>
<svg xmlns="http://www.w3.org/2000/svg"
	xmlns:xlink="http://www.w3.org/1999/xlink"
	width="31px" height="31px" viewBox="0 0 31 31">
<path fillRule="evenodd" d="M 15.25 30.5C 6.83 30.5-0 23.67-0 15.25-0 6.83 6.83-0 15.25-0 23.67-0 30.5 6.83 30.5 15.25 30.5 23.67 23.67 30.5 15.25 30.5ZM 15.25 2.38C 8.14 2.38 2.38 8.14 2.38 15.25 2.38 22.36 8.14 28.12 15.25 28.12 22.36 28.12 28.12 22.36 28.12 15.25 28.12 8.14 22.36 2.38 15.25 2.38ZM 20.02 16.2C 19.98 15.97 19.33 14.37 18.11 14.29 15.86 13.99 15.26 15.95 15.26 16.2 15.26 16.2 15.26 22.87 15.26 22.87 15.26 22.87 12.4 22.87 12.4 22.87 12.4 22.87 12.4 11.43 12.4 11.43 12.4 11.43 15.26 11.43 15.26 11.43 15.26 11.43 15.26 13.34 15.26 13.34 15.42 13.26 16.62 11.47 19.07 11.43 22.2 11.47 22.77 13.82 22.87 14.96 22.87 14.96 22.87 22.88 22.87 22.88 22.87 22.88 20.02 22.87 20.02 22.87 20.02 22.87 20.02 16.2 20.02 16.2ZM 7.63 11.43C 7.63 11.43 10.49 11.43 10.49 11.43 10.49 11.43 10.49 22.87 10.49 22.87 10.49 22.87 7.63 22.87 7.63 22.87 7.63 22.87 7.63 11.43 7.63 11.43ZM 9.06 10.48C 8.27 10.48 7.63 9.84 7.63 9.05 7.63 8.26 8.27 7.62 9.06 7.62 9.85 7.62 10.49 8.26 10.49 9.05 10.49 9.84 9.85 10.48 9.06 10.48Z" fill="rgb(177,177,177)"/></svg>