<?xml version="1.0" encoding="utf-8"?>
<svg xmlns="http://www.w3.org/2000/svg"
	xmlns:xlink="http://www.w3.org/1999/xlink"
	width="11px" height="12px" viewBox="0 0 11 12">
<path fillRule="evenodd" d="M 5 9.99C 5 9.99-0 5.09-0 5.09-0 5.09-0 6.5-0 6.5-0 6.5 4.76 11.16 4.76 11.16 4.76 11.16 5 11.41 5 11.41 5 11.41 5.22 11.63 5.22 11.63 5.22 11.63 5.46 11.87 5.46 11.87 5.46 11.87 5.71 11.63 5.71 11.63 5.71 11.63 6 11.34 6 11.34 6 11.34 6.17 11.16 6.17 11.16 6.17 11.16 11 6.48 11 6.48 11 6.48 11 5.07 11 5.07 11 5.07 6 9.92 6 9.92 6 9.92 6 0.13 6 0.13 6 0.13 5 0.13 5 0.13 5 0.13 5 9.99 5 9.99Z" fill="rgb(255,255,255)" opacity="0.75"/></svg>