<?xml version="1.0" encoding="utf-8"?>
<svg xmlns="http://www.w3.org/2000/svg"
	xmlns:xlink="http://www.w3.org/1999/xlink"
	width="40px" height="40px" viewBox="0 0 40 40">
<path fillRule="evenodd" d="M 20 40.01C 8.97 40.01-0 31.03-0 20-0 8.97 8.97-0 20-0 31.03-0 40.01 8.97 40.01 20 40.01 31.03 31.03 40.01 20 40.01ZM 20 1.35C 9.72 1.35 1.35 9.72 1.35 20 1.35 30.28 9.72 38.65 20 38.65 30.28 38.65 38.65 30.28 38.65 20 38.65 9.72 30.28 1.35 20 1.35ZM 28.43 20.68C 28.43 20.68 20.68 20.68 20.68 20.68 20.68 20.68 20.68 28.43 20.68 28.43 20.68 28.8 20.38 29.1 20 29.1 19.63 29.1 19.32 28.8 19.32 28.43 19.32 28.43 19.32 20.68 19.32 20.68 19.32 20.68 11.58 20.68 11.58 20.68 11.2 20.68 10.9 20.38 10.9 20 10.9 19.63 11.2 19.32 11.58 19.32 11.58 19.32 19.32 19.32 19.32 19.32 19.32 19.32 19.32 11.58 19.32 11.58 19.32 11.2 19.63 10.9 20 10.9 20.38 10.9 20.68 11.2 20.68 11.58 20.68 11.58 20.68 19.32 20.68 19.32 20.68 19.32 28.43 19.32 28.43 19.32 28.8 19.32 29.1 19.63 29.1 20 29.1 20.38 28.8 20.68 28.43 20.68Z" fill="rgb(251,171,69)"/></svg>