<?xml version="1.0" encoding="utf-8"?>
<svg xmlns="http://www.w3.org/2000/svg"
	xmlns:xlink="http://www.w3.org/1999/xlink"
	width="31px" height="31px" viewBox="0 0 31 31">
<path fillRule="evenodd" d="M 15.12 30.37C 6.84 30.37 0.12 23.66 0.12 15.37 0.12 7.09 6.84 0.37 15.12 0.37 23.41 0.37 30.12 7.09 30.12 15.37 30.12 23.66 23.41 30.37 15.12 30.37ZM 15.12 2.72C 8.13 2.72 2.47 8.38 2.47 15.37 2.47 22.36 8.13 28.03 15.12 28.03 22.12 28.03 27.78 22.36 27.78 15.37 27.78 8.38 22.12 2.72 15.12 2.72ZM 15.12 22.87C 10.98 22.87 7.62 19.52 7.62 15.37 7.62 11.23 10.98 7.88 15.12 7.87 19.27 7.88 22.62 11.23 22.62 15.37 22.62 19.52 19.27 22.87 15.12 22.87ZM 15.12 21.23C 15.86 21.23 16.55 21.09 17.2 20.84 16.89 19.24 16.49 17.81 16.05 16.56 14.74 16.99 13.73 17.71 13.01 18.4 12.3 19.08 11.86 19.73 11.65 20.07 12.62 20.8 13.82 21.23 15.12 21.23ZM 9.27 15.37C 9.27 16.81 9.79 18.12 10.66 19.14 10.96 18.67 11.49 17.97 12.27 17.26 13.08 16.52 14.17 15.78 15.56 15.31 15.45 15.05 15.34 14.79 15.23 14.54 13.15 15.2 11.09 15.29 9.92 15.3 9.66 15.3 9.44 15.3 9.28 15.29 9.27 15.32 9.27 15.35 9.27 15.37ZM 9.45 13.96C 9.58 13.96 9.73 13.96 9.92 13.96 9.94 13.96 9.98 13.96 10.01 13.96 11.08 13.96 12.86 13.84 14.63 13.32 13.76 11.67 12.95 10.61 12.54 10.13 11.02 10.89 9.87 12.28 9.45 13.96ZM 15.12 9.52C 14.7 9.52 14.28 9.58 13.88 9.66 14.39 10.31 15.13 11.38 15.9 12.86 16.99 12.39 18.01 11.73 18.77 10.81 17.77 10.01 16.51 9.52 15.12 9.52ZM 19.72 11.76C 18.8 12.81 17.67 13.55 16.48 14.07 16.62 14.36 16.75 14.66 16.88 14.98 17.41 14.89 17.97 14.83 18.57 14.83 18.57 14.83 18.58 14.83 18.58 14.83 19.32 14.83 20.12 14.92 20.97 15.1 20.91 13.84 20.45 12.69 19.72 11.76ZM 18.57 16.17C 18.57 16.17 18.57 16.17 18.57 16.17 18.57 16.17 18.57 16.17 18.57 16.17 18.57 16.17 18.56 16.17 18.56 16.17 18.14 16.17 17.74 16.2 17.36 16.26 17.77 17.43 18.14 18.73 18.44 20.19 19.69 19.33 20.58 17.99 20.87 16.45 20.04 16.26 19.27 16.17 18.57 16.17Z" fill="rgb(177,177,177)"/></svg>