<?xml version="1.0" encoding="utf-8"?>
<svg xmlns="http://www.w3.org/2000/svg"
	xmlns:xlink="http://www.w3.org/1999/xlink"
	width="14px" height="12px" viewBox="0 0 14 12">
<path fillRule="evenodd" d="M 12.76 2.13C 12.76 2.13 10.21 2.13 10.21 2.13 10.21 2.13 10.21 0.85 10.21 0.85 10.21 0.38 9.83-0 9.36-0 9.36-0 4.25-0 4.25-0 3.78-0 3.4 0.38 3.4 0.85 3.4 0.85 3.4 2.13 3.4 2.13 3.4 2.13 0.85 2.13 0.85 2.13 0.38 2.13-0 2.51-0 2.98-0 2.98-0 11.06-0 11.06-0 11.53 0.38 11.91 0.85 11.91 0.85 11.91 12.76 11.91 12.76 11.91 13.23 11.91 13.61 11.53 13.61 11.06 13.61 11.06 13.61 2.98 13.61 2.98 13.61 2.51 13.23 2.13 12.76 2.13ZM 4.68 1.28C 4.68 1.28 8.93 1.28 8.93 1.28 8.93 1.28 8.93 2.13 8.93 2.13 8.93 2.13 4.68 2.13 4.68 2.13 4.68 2.13 4.68 1.28 4.68 1.28ZM 12.34 10.63C 12.34 10.63 1.28 10.63 1.28 10.63 1.28 10.63 1.28 7.23 1.28 7.23 1.28 7.23 5.53 7.23 5.53 7.23 5.53 7.23 5.53 7.66 5.53 7.66 5.53 7.66 8.08 7.66 8.08 7.66 8.08 7.66 8.08 7.23 8.08 7.23 8.08 7.23 12.34 7.23 12.34 7.23 12.34 7.23 12.34 10.63 12.34 10.63ZM 12.34 5.95C 12.34 5.95 8.08 5.95 8.08 5.95 8.08 5.95 8.08 5.53 8.08 5.53 8.08 5.53 5.53 5.53 5.53 5.53 5.53 5.53 5.53 5.95 5.53 5.95 5.53 5.95 1.28 5.95 1.28 5.95 1.28 5.95 1.28 3.4 1.28 3.4 1.28 3.4 12.34 3.4 12.34 3.4 12.34 3.4 12.34 5.95 12.34 5.95Z" fill="rgb(89,89,89)"/></svg>