<?xml version="1.0" encoding="utf-8"?>
<svg xmlns="http://www.w3.org/2000/svg"
	xmlns:xlink="http://www.w3.org/1999/xlink"
	width="55px" height="55px" viewBox="0 0 55 55">
<path fillRule="evenodd" d="M 39.31 51.12C 39.31 51.12 35.94 51.12 35.94 51.12 34.08 51.12 32.56 49.61 32.56 47.75 32.56 47.75 32.56 42.69 32.56 42.69 32.56 42.69 22.44 42.69 22.44 42.69 22.44 42.69 22.44 47.75 22.44 47.75 22.44 49.61 20.93 51.12 19.06 51.12 19.06 51.12 15.69 51.12 15.69 51.12 14.75 51.12 14 51.88 14 52.81 14 53.74 14.75 54.5 15.69 54.5 15.69 54.5 39.31 54.5 39.31 54.5 40.25 54.5 41 53.74 41 52.81 41 51.88 40.25 51.12 39.31 51.12ZM 51.55 0.5C 51.55 0.5 3.45 0.5 3.45 0.5 1.82 0.5 0.5 1.92 0.5 3.66 0.5 3.66 0.5 36.15 0.5 36.15 0.5 37.89 1.82 39.31 3.45 39.31 3.45 39.31 51.55 39.31 51.55 39.31 53.18 39.31 54.5 37.89 54.5 36.15 54.5 36.15 54.5 3.66 54.5 3.66 54.5 1.92 53.18 0.5 51.55 0.5ZM 51.12 35.94C 51.12 35.94 3.87 35.94 3.87 35.94 3.87 35.94 3.87 3.87 3.87 3.87 3.87 3.87 51.12 3.87 51.12 3.87 51.12 3.87 51.12 35.94 51.12 35.94Z" fill="rgb(33,33,33)"/></svg>