<?xml version="1.0" encoding="utf-8"?>
<svg xmlns="http://www.w3.org/2000/svg"
	xmlns:xlink="http://www.w3.org/1999/xlink"
	width="34px" height="55px" viewBox="0 0 34 55">
<path fillRule="evenodd" d="M 29.29 54.25C 29.29 54.25 4.4 54.25 4.4 54.25 1.97 54.25 0 52.3 0 49.91 0 49.91 0 4.34 0 4.34 0 1.94 1.97-0 4.4-0 4.4-0 29.29-0 29.29-0 31.72-0 33.69 1.94 33.69 4.34 33.69 4.34 33.69 49.91 33.69 49.91 33.69 52.3 31.72 54.25 29.29 54.25ZM 16.84 52.62C 18.15 52.62 19.22 51.57 19.22 50.27 19.22 48.98 18.15 47.92 16.84 47.92 15.53 47.92 14.46 48.98 14.46 50.27 14.46 51.57 15.53 52.62 16.84 52.62ZM 30.02 8.68C 30.02 8.28 29.7 7.95 29.29 7.95 29.29 7.95 4.4 7.95 4.4 7.95 3.99 7.95 3.66 8.28 3.66 8.68 3.66 8.68 3.66 45.57 3.66 45.57 3.66 45.97 3.99 46.29 4.4 46.29 4.4 46.29 29.29 46.29 29.29 46.29 29.7 46.29 30.02 45.97 30.02 45.57 30.02 45.57 30.02 8.68 30.02 8.68ZM 27.1 42.68C 27.1 42.68 17.58 42.68 17.58 42.68 17.18 42.68 16.85 42.35 16.85 41.96 16.85 41.96 16.85 41.95 16.85 41.95 16.85 41.55 17.18 41.23 17.58 41.23 17.58 41.23 27.1 41.23 27.1 41.23 27.5 41.23 27.83 41.55 27.83 41.95 27.83 41.95 27.83 41.96 27.83 41.96 27.83 42.36 27.5 42.68 27.1 42.68ZM 27.1 39.06C 27.1 39.06 17.58 39.06 17.58 39.06 17.18 39.06 16.85 38.74 16.85 38.34 16.85 38.34 16.85 38.33 16.85 38.33 16.85 37.93 17.18 37.61 17.58 37.61 17.58 37.61 27.1 37.61 27.1 37.61 27.5 37.61 27.83 37.93 27.83 38.33 27.83 38.33 27.83 38.34 27.83 38.34 27.83 38.74 27.5 39.06 27.1 39.06ZM 27.1 33.99C 27.1 33.99 17.58 33.99 17.58 33.99 17.18 33.99 16.85 33.67 16.85 33.28 16.85 33.28 16.85 33.26 16.85 33.26 16.85 32.87 17.18 32.55 17.58 32.55 17.58 32.55 27.1 32.55 27.1 32.55 27.5 32.55 27.83 32.87 27.83 33.26 27.83 33.26 27.83 33.28 27.83 33.28 27.83 33.67 27.5 33.99 27.1 33.99ZM 27.1 30.38C 27.1 30.38 17.58 30.38 17.58 30.38 17.18 30.38 16.85 30.06 16.85 29.66 16.85 29.66 16.85 29.65 16.85 29.65 16.85 29.25 17.18 28.93 17.58 28.93 17.58 28.93 27.1 28.93 27.1 28.93 27.5 28.93 27.83 29.25 27.83 29.65 27.83 29.65 27.83 29.66 27.83 29.66 27.83 30.06 27.5 30.38 27.1 30.38ZM 27.1 25.31C 27.1 25.31 17.58 25.31 17.58 25.31 17.18 25.31 16.85 24.99 16.85 24.6 16.85 24.6 16.85 24.58 16.85 24.58 16.85 24.19 17.18 23.87 17.58 23.87 17.58 23.87 27.1 23.87 27.1 23.87 27.5 23.87 27.83 24.19 27.83 24.58 27.83 24.58 27.83 24.6 27.83 24.6 27.83 24.99 27.5 25.31 27.1 25.31ZM 27.1 21.7C 27.1 21.7 17.58 21.7 17.58 21.7 17.18 21.7 16.85 21.38 16.85 20.98 16.85 20.98 16.85 20.97 16.85 20.97 16.85 20.57 17.18 20.25 17.58 20.25 17.58 20.25 27.1 20.25 27.1 20.25 27.5 20.25 27.83 20.57 27.83 20.97 27.83 20.97 27.83 20.98 27.83 20.98 27.83 21.38 27.5 21.7 27.1 21.7ZM 27.1 15.91C 27.1 15.91 17.57 15.91 17.57 15.91 17.17 15.91 16.84 15.59 16.84 15.19 16.84 15.19 16.84 15.18 16.84 15.18 16.84 14.79 17.17 14.46 17.57 14.46 17.57 14.46 27.1 14.46 27.1 14.46 27.5 14.46 27.82 14.79 27.82 15.18 27.82 15.18 27.82 15.19 27.82 15.19 27.82 15.59 27.5 15.91 27.1 15.91ZM 27.1 12.29C 27.1 12.29 17.57 12.29 17.57 12.29 17.17 12.29 16.84 11.97 16.84 11.58 16.84 11.58 16.84 11.56 16.84 11.56 16.84 11.17 17.17 10.85 17.57 10.85 17.57 10.85 27.1 10.85 27.1 10.85 27.5 10.85 27.82 11.17 27.82 11.56 27.82 11.56 27.82 11.58 27.82 11.58 27.82 11.97 27.5 12.29 27.1 12.29ZM 14.46 39.42C 14.36 39.42 14.27 39.4 14.18 39.37 14.18 39.37 12.67 41.28 12.67 41.28 12.76 41.42 12.82 41.59 12.82 41.77 12.82 42.27 12.41 42.68 11.9 42.68 11.4 42.68 10.99 42.27 10.99 41.77 10.99 41.69 11 41.62 11.02 41.55 11.02 41.55 9.16 40.32 9.16 40.32 9 40.43 8.81 40.51 8.61 40.51 8.49 40.51 8.37 40.48 8.27 40.44 8.27 40.44 6.84 42.05 6.84 42.05 6.91 42.18 6.96 42.33 6.96 42.49 6.96 42.99 6.55 43.4 6.04 43.4 5.54 43.4 5.13 42.99 5.13 42.49 5.13 42 5.54 41.59 6.04 41.59 6.17 41.59 6.28 41.62 6.39 41.66 6.39 41.66 7.81 40.04 7.81 40.04 7.74 39.91 7.69 39.76 7.69 39.6 7.69 39.1 8.1 38.7 8.61 38.7 9.11 38.7 9.52 39.1 9.52 39.6 9.52 39.68 9.51 39.75 9.49 39.82 9.49 39.82 11.35 41.05 11.35 41.05 11.51 40.94 11.7 40.87 11.9 40.87 12 40.87 12.1 40.89 12.19 40.92 12.19 40.92 13.7 39.01 13.7 39.01 13.6 38.86 13.55 38.7 13.55 38.52 13.55 38.02 13.96 37.61 14.46 37.61 14.97 37.61 15.38 38.02 15.38 38.52 15.38 39.01 14.97 39.42 14.46 39.42ZM 11.72 10.12C 11.72 10.12 13.92 10.12 13.92 10.12 13.92 10.12 13.92 17.36 13.92 17.36 13.92 17.36 11.72 17.36 11.72 17.36 11.72 17.36 11.72 10.12 11.72 10.12ZM 9.75 36.2C 9.75 36.2 9.75 35.43 9.75 35.43 8.66 35.31 8.06 34.64 8.06 34.64 8.06 34.64 8.65 33.83 8.65 33.83 8.65 33.83 9.3 34.46 10.15 34.46 10.61 34.46 11.02 34.23 11.02 33.74 11.02 32.74 8.16 32.84 8.16 31.04 8.16 30.18 8.81 29.51 9.75 29.36 9.75 29.36 9.75 28.57 9.75 28.57 9.75 28.57 10.48 28.57 10.48 28.57 10.48 28.57 10.48 29.34 10.48 29.34 11.46 29.42 11.97 29.95 11.97 29.95 11.97 29.95 11.5 30.83 11.5 30.83 11.5 30.83 10.92 30.31 10.17 30.31 9.66 30.31 9.26 30.6 9.26 31.02 9.26 32.02 12.11 31.84 12.11 33.72 12.11 34.57 11.51 35.3 10.48 35.43 10.48 35.43 10.48 36.2 10.48 36.2 10.48 36.2 9.75 36.2 9.75 36.2ZM 13.87 23.75C 13.62 25.25 12.38 26.47 10.86 26.71 8.83 27.04 7.05 25.71 6.67 23.87 6.67 23.87 10.25 23.87 10.25 23.87 10.66 23.87 10.99 23.54 10.99 23.14 10.99 23.14 10.99 19.6 10.99 19.6 12.85 19.97 14.19 21.74 13.87 23.75ZM 8.79 13.02C 8.79 13.02 10.99 13.02 10.99 13.02 10.99 13.02 10.99 17.36 10.99 17.36 10.99 17.36 8.79 17.36 8.79 17.36 8.79 17.36 8.79 13.02 8.79 13.02ZM 10.25 22.78C 10.25 22.98 10.09 23.14 9.89 23.14 9.89 23.14 6.59 23.14 6.59 23.14 6.59 21.15 8.23 19.53 10.25 19.53 10.25 19.53 10.25 22.78 10.25 22.78ZM 5.86 15.19C 5.86 15.19 8.06 15.19 8.06 15.19 8.06 15.19 8.06 17.36 8.06 17.36 8.06 17.36 5.86 17.36 5.86 17.36 5.86 17.36 5.86 15.19 5.86 15.19Z" fill="rgb(0,0,0)"/></svg>