<?xml version="1.0" encoding="utf-8"?>
<svg xmlns="http://www.w3.org/2000/svg"
	xmlns:xlink="http://www.w3.org/1999/xlink"
	width="57px" height="47px" viewBox="0 0 57 47">
<path fillRule="evenodd" d="M 16.97 26.95C 16.97 33.27 22.1 38.4 28.43 38.4 34.75 38.4 39.88 33.27 39.88 26.95 39.88 20.62 34.75 15.48 28.43 15.48 22.1 15.48 16.97 20.62 16.97 26.95ZM 53.11 7.55C 53.11 7.55 40.77 7.55 40.77 7.55 39.88 4.03 39 0.5 35.48 0.5 35.48 0.5 21.37 0.5 21.37 0.5 17.85 0.5 16.97 4.03 16.08 7.55 16.08 7.55 3.74 7.55 3.74 7.55 1.8 7.55 0.22 9.14 0.22 11.08 0.22 11.08 0.22 42.81 0.22 42.81 0.22 44.75 1.8 46.34 3.74 46.34 3.74 46.34 53.11 46.34 53.11 46.34 55.05 46.34 56.63 44.75 56.63 42.81 56.63 42.81 56.63 11.08 56.63 11.08 56.63 9.14 55.05 7.55 53.11 7.55ZM 28.43 42.59C 19.78 42.59 12.78 35.59 12.78 26.95 12.78 18.3 19.78 11.3 28.43 11.3 37.07 11.3 44.07 18.3 44.07 26.95 44.07 35.59 37.07 42.59 28.43 42.59ZM 53.11 18.13C 53.11 18.13 46.06 18.13 46.06 18.13 46.06 18.13 46.06 14.6 46.06 14.6 46.06 14.6 53.11 14.6 53.11 14.6 53.11 14.6 53.11 18.13 53.11 18.13Z" fill="rgb(0,0,0)"/></svg>