<?xml version="1.0" encoding="utf-8"?>
<svg xmlns="http://www.w3.org/2000/svg"
	xmlns:xlink="http://www.w3.org/1999/xlink"
	width="48px" height="55px" viewBox="0 0 48 55">
<path fillRule="evenodd" d="M 47.69 38.05C 47.37 38.53 46.84 38.8 46.23 38.8 45.53 38.8 44.83 38.42 44.47 38.19 44.47 38.19 44.25 38.02 44.25 38.02 44.21 37.98 39.65 33.88 31.38 33.88 28.28 33.88 25.02 34.46 21.69 35.58 21.58 35.62 21.17 35.75 20.63 35.75 19.33 35.75 18.3 35 17.88 33.75 17.88 33.75 13.82 21.76 13.82 21.76 13.66 21.4 13.36 20.55 13.72 19.62 13.93 19.07 14.43 18.34 15.63 17.93 15.85 17.87 29.04 14.12 31.96 2.46 32.35 1.3 33.03 0.07 34.28 0.07 34.78 0.07 35.69 0.27 36.16 1.68 36.16 1.68 40.22 13.69 40.22 13.69 42.29 14.33 43.93 15.91 44.62 17.97 45.32 20.02 44.97 22.27 43.72 24.02 43.72 24.02 47.77 36.02 47.77 36.02 47.87 36.26 48.26 37.21 47.69 38.05ZM 40.36 23.36C 40.36 23.36 37.96 16.26 37.96 16.26 37.96 16.26 34.22 5.22 34.22 5.22 30.23 16.51 18.02 20.33 16.61 20.74 16.61 20.74 20.69 32.81 20.69 32.81 24.38 31.54 27.96 30.92 31.38 30.92 37.38 30.92 41.65 32.81 44.05 34.25 44.05 34.25 40.36 23.36 40.36 23.36ZM 24.92 21.92C 24.4 21.92 23.93 21.57 23.79 21.05 23.62 20.43 23.98 19.78 24.61 19.61 24.68 19.59 31.66 17.62 32.26 12.91 32.34 12.27 32.94 11.82 33.57 11.9 34.21 11.98 34.66 12.56 34.59 13.21 33.79 19.47 25.58 21.78 25.23 21.88 25.12 21.9 25.02 21.92 24.92 21.92ZM 16.25 40.72C 16.25 44.36 19.92 46.14 18.66 48.79 23 53.18 17.57 54.13 17.57 54.13 15.81 54.73 15.49 52.87 15.49 52.87 15.49 52.87 11.79 41.91 11.79 41.91 11 39.08 9.24 39.6 9.24 39.6 4.78 41.11 3.15 35.99 3.15 35.99 3.15 35.99 1.1 29.93 1.1 29.93-0.39 25.52 4.1 23.78 4.1 23.78 4.1 23.78 9.86 21.83 9.86 21.83 11.72 21.2 12 22.96 12 22.96 12 22.96 16.65 36.99 16.65 36.99 17.04 38.17 16.25 40.72 16.25 40.72Z" fill="rgb(0,0,0)"/></svg>